<?xml version="1.0" encoding="UTF-8"?>
<svg xmlns="http://www.w3.org/2000/svg" xmlns:xlink="http://www.w3.org/1999/xlink" viewBox="0 0 72.64 69.19">
  <defs>
    <linearGradient id="Nueva_muestra_de_degradado_1" data-name="Nueva muestra de degradado 1" x1="0" y1="11.55" x2="68.56" y2="11.55" gradientUnits="userSpaceOnUse">
      <stop offset="0" stop-color="#ff7444"/>
      <stop offset="1" stop-color="#c903e5"/>
    </linearGradient>
    <linearGradient id="Degradado_sin_nombre_8" data-name="Degradado sin nombre 8" x1="2.33" y1="57.64" x2="72.64" y2="57.64" gradientUnits="userSpaceOnUse">
      <stop offset="0" stop-color="#c903e5"/>
      <stop offset="1" stop-color="#ff7444"/>
    </linearGradient>
    <linearGradient id="Nueva_muestra_de_degradado_1-2" data-name="Nueva muestra de degradado 1" x1="2.09" y1="34.65" x2="69.33" y2="34.65" xlink:href="#Nueva_muestra_de_degradado_1"/>
  </defs>
  <g>
    <g id="Layer_2" data-name="Layer 2">
      <g id="OBJECTS">
        <g>
          <path fill="url(#Nueva_muestra_de_degradado_1)" d="m31.53,23.11C9.51,23.11,1.82,9.26,1.61,9.05-.48,7.03-.54,3.7,1.48,1.61,3.5-.49,6.83-.54,8.92,1.48c1.02.97,18.64,23.81,51.37,1.21,2.39-1.65,5.67-1.05,7.33,1.34,1.65,2.39,1.05,5.67-1.34,7.33-12.68,8.76-24.51,11.75-34.75,11.75Z"/>
          <path fill="url(#Degradado_sin_nombre_8)" d="m67.37,69.19c-1.31,0-2.62-.49-3.64-1.47h0c-1.04-.98-20.41-23.82-53.14-1.22-2.39,1.66-5.67,1.05-7.33-1.34-1.65-2.39-1.05-5.67,1.34-7.33,39.95-27.59,66.11,2,66.43,2.3,2.09,2.02,2.15,5.35.13,7.45-1.03,1.07-2.41,1.61-3.79,1.61Z"/>
          <path fill="url(#Nueva_muestra_de_degradado_1-2)" d="m7.36,67.85c-1.36,0-2.72-.52-3.75-1.57-2.04-2.07-2.02-5.41.05-7.45L60.37,2.96c2.07-2.04,5.41-2.02,7.45.06,2.04,2.07,2.02,5.41-.05,7.45L11.05,66.33c-1.03,1.01-2.36,1.51-3.7,1.51Z"/>
        </g>
      </g>
    </g>
  </g>
</svg>
